<svg xmlns="http://www.w3.org/2000/svg" viewBox="0 0 660 392" width="660" height="392" font-family="'Segoe UI', system-ui, sans-serif" role="img" aria-label="Daily share of request bytes removed by TokenSaver">
<rect width="660" height="392" fill="#ffffff"/>
<rect x="81.0" y="30" width="147.0" height="150" fill="#f1f0ec"/>
<text x="154.5" y="42.0" font-size="9" fill="#52514e" text-anchor="middle" font-weight="400" >Codex exec output</text>
<text x="154.5" y="53.0" font-size="9" fill="#52514e" text-anchor="middle" font-weight="400" >not yet eligible</text>
<rect x="228.0" y="30" width="119.4" height="150" fill="#f1f0ec"/>
<text x="287.7" y="42.0" font-size="9" fill="#52514e" text-anchor="middle" font-weight="400" >File reads truncated</text>
<text x="287.7" y="53.0" font-size="9" fill="#52514e" text-anchor="middle" font-weight="400" >(mitigation commit 30 Aug)</text>
<line x1="58" x2="646" y1="180.0" y2="180.0" stroke="#c3c2b7" stroke-width="1"/>
<text x="50.0" y="183.5" font-size="10" fill="#898781" text-anchor="end" font-weight="400" style="font-variant-numeric: tabular-nums">0%</text>
<line x1="58" x2="646" y1="130.0" y2="130.0" stroke="#e1e0d9" stroke-width="1"/>
<text x="50.0" y="133.5" font-size="10" fill="#898781" text-anchor="end" font-weight="400" style="font-variant-numeric: tabular-nums">10%</text>
<line x1="58" x2="646" y1="80.0" y2="80.0" stroke="#e1e0d9" stroke-width="1"/>
<text x="50.0" y="83.5" font-size="10" fill="#898781" text-anchor="end" font-weight="400" style="font-variant-numeric: tabular-nums">20%</text>
<line x1="58" x2="646" y1="30.0" y2="30.0" stroke="#e1e0d9" stroke-width="1"/>
<text x="50.0" y="33.5" font-size="10" fill="#898781" text-anchor="end" font-weight="400" style="font-variant-numeric: tabular-nums">30%</text>
<line x1="58" x2="72" y1="19" y2="19" stroke="#eb6834" stroke-width="2.5" stroke-linecap="round"/>
<text x="78.0" y="23.0" font-size="11.5" fill="#0b0b0b" text-anchor="start" font-weight="600" >Codex CLI</text>
<text x="646.0" y="23.0" font-size="9" fill="#52514e" text-anchor="end" font-weight="400" >Gray rule: 3.39% of bytes, 4 Sep – 1 Oct</text>
<polyline points="58.0,176.8 67.2,95.6 76.4,95.8 85.6,180.0 94.8,180.0 103.9,180.0 113.1,180.0 122.3,180.0 131.5,180.0 140.7,180.0 149.9,180.0 159.1,180.0 168.2,180.0 177.4,180.0 186.6,180.0 195.8,180.0 205.0,180.0 214.2,180.0 223.4,180.0 232.6,175.3 241.8,84.7 250.9,154.8 260.1,73.4 269.3,97.9 278.5,104.4 287.7,130.4 296.9,91.3 306.1,79.8 315.2,102.0 324.4,68.2 333.6,38.9 342.8,89.2 352.0,150.0 361.2,150.6 370.4,137.1 379.6,163.7 388.8,156.3 397.9,155.8 407.1,179.4 416.3,174.9 425.5,178.9 434.7,119.3 443.9,179.9 453.1,146.6 462.2,179.6 471.4,180.0 480.6,126.1 489.8,170.8 499.0,164.5 508.2,171.7 517.4,131.8 526.6,159.4 535.8,179.9 544.9,162.3 554.1,157.1 563.3,129.8 572.5,151.2 581.7,167.7 590.9,166.1 600.1,143.3 609.2,165.1 618.4,152.1 627.6,157.2 636.8,165.3 646.0,170.9" fill="none" stroke="#eb6834" stroke-width="2" stroke-linejoin="round" stroke-linecap="round"/>
<line x1="393.3" x2="650.6" y1="163.1" y2="163.1" stroke="#52514e" stroke-width="1"/>
<rect x="228.0" y="236" width="119.4" height="112" fill="#f1f0ec"/>
<text x="287.7" y="248.0" font-size="9" fill="#52514e" text-anchor="middle" font-weight="400" >File reads truncated</text>
<text x="287.7" y="259.0" font-size="9" fill="#52514e" text-anchor="middle" font-weight="400" >(mitigation commit 30 Aug)</text>
<line x1="58" x2="646" y1="348.0" y2="348.0" stroke="#c3c2b7" stroke-width="1"/>
<text x="50.0" y="351.5" font-size="10" fill="#898781" text-anchor="end" font-weight="400" style="font-variant-numeric: tabular-nums">0%</text>
<line x1="58" x2="646" y1="320.0" y2="320.0" stroke="#e1e0d9" stroke-width="1"/>
<text x="50.0" y="323.5" font-size="10" fill="#898781" text-anchor="end" font-weight="400" style="font-variant-numeric: tabular-nums">1%</text>
<line x1="58" x2="646" y1="292.0" y2="292.0" stroke="#e1e0d9" stroke-width="1"/>
<text x="50.0" y="295.5" font-size="10" fill="#898781" text-anchor="end" font-weight="400" style="font-variant-numeric: tabular-nums">2%</text>
<line x1="58" x2="646" y1="264.0" y2="264.0" stroke="#e1e0d9" stroke-width="1"/>
<text x="50.0" y="267.5" font-size="10" fill="#898781" text-anchor="end" font-weight="400" style="font-variant-numeric: tabular-nums">3%</text>
<line x1="58" x2="646" y1="236.0" y2="236.0" stroke="#e1e0d9" stroke-width="1"/>
<text x="50.0" y="239.5" font-size="10" fill="#898781" text-anchor="end" font-weight="400" style="font-variant-numeric: tabular-nums">4%</text>
<line x1="58" x2="72" y1="225" y2="225" stroke="#2a78d6" stroke-width="2.5" stroke-linecap="round"/>
<text x="78.0" y="229.0" font-size="11.5" fill="#0b0b0b" text-anchor="start" font-weight="600" >Claude Code</text>
<text x="646.0" y="229.0" font-size="9" fill="#52514e" text-anchor="end" font-weight="400" >Gray rule: 0.19% of bytes, 4 Sep – 1 Oct</text>
<polyline points="58.0,345.8 67.2,255.9 76.4,347.7 85.6,347.2" fill="none" stroke="#2a78d6" stroke-width="2" stroke-linejoin="round" stroke-linecap="round"/>
<polyline points="103.9,333.4 113.1,347.2 122.3,343.2 131.5,347.2 140.7,346.6 149.9,344.1 159.1,348.0 168.2,346.6 177.4,347.4 186.6,347.4 195.8,327.3 205.0,343.8 214.2,328.4 223.4,301.0 232.6,303.2 241.8,317.5" fill="none" stroke="#2a78d6" stroke-width="2" stroke-linejoin="round" stroke-linecap="round"/>
<polyline points="260.1,342.4 269.3,328.1 278.5,346.6 287.7,299.0 296.9,344.9 306.1,332.3" fill="none" stroke="#2a78d6" stroke-width="2" stroke-linejoin="round" stroke-linecap="round"/>
<polyline points="324.4,307.4 333.6,318.9 342.8,315.8 352.0,341.3 361.2,347.7 370.4,347.4 379.6,341.3 388.8,341.3 397.9,341.3 407.1,343.8 416.3,324.8 425.5,346.3 434.7,347.4 443.9,347.2 453.1,336.8 462.2,345.2 471.4,338.5 480.6,337.4 489.8,346.0 499.0,342.4 508.2,344.9 517.4,344.1 526.6,341.6 535.8,341.8" fill="none" stroke="#2a78d6" stroke-width="2" stroke-linejoin="round" stroke-linecap="round"/>
<polyline points="554.1,346.0 563.3,345.5 572.5,344.6 581.7,341.3 590.9,347.7 600.1,341.0 609.2,340.2 618.4,341.0 627.6,346.0 636.8,314.7 646.0,345.8" fill="none" stroke="#2a78d6" stroke-width="2" stroke-linejoin="round" stroke-linecap="round"/>
<line x1="393.3" x2="650.6" y1="342.7" y2="342.7" stroke="#52514e" stroke-width="1"/>
<line x1="85.6" x2="85.6" y1="348" y2="352" stroke="#c3c2b7" stroke-width="1"/>
<text x="85.6" y="366.0" font-size="10" fill="#898781" text-anchor="middle" font-weight="400" >1 Aug</text>
<line x1="214.2" x2="214.2" y1="348" y2="352" stroke="#c3c2b7" stroke-width="1"/>
<text x="214.2" y="366.0" font-size="10" fill="#898781" text-anchor="middle" font-weight="400" >15 Aug</text>
<line x1="370.4" x2="370.4" y1="348" y2="352" stroke="#c3c2b7" stroke-width="1"/>
<text x="370.4" y="366.0" font-size="10" fill="#898781" text-anchor="middle" font-weight="400" >1 Sep</text>
<line x1="499.0" x2="499.0" y1="348" y2="352" stroke="#c3c2b7" stroke-width="1"/>
<text x="499.0" y="366.0" font-size="10" fill="#898781" text-anchor="middle" font-weight="400" >15 Sep</text>
<line x1="646.0" x2="646.0" y1="348" y2="352" stroke="#c3c2b7" stroke-width="1"/>
<text x="646.0" y="366.0" font-size="10" fill="#898781" text-anchor="middle" font-weight="400" >1 Oct</text>
<text x="352.0" y="386.0" font-size="9.5" fill="#898781" text-anchor="middle" font-weight="400" >Day (UTC), 29 July – 1 October 2026; 1 October is a partial day</text>
</svg>